<?xml version="1.0"?><svg xmlns="http://www.w3.org/2000/svg" xmlns:xlink="http://www.w3.org/1999/xlink" version="1.1" viewBox="0 0 512 512" style="enable-background:new 0 0 512 512;" xml:space="preserve"><g id="_x31_9_x2C__shirt_x2C__fashion_x2C__clothing_x2C__golf_x2C__sports_x2C__shirts"><path d="M497.035,99.965l-51.208-51.208C431.152,34.082,411.643,26,390.89,26h-72.01c-2.132-3.521-6.187-9.823-13.592-22.572   C304.424,1.991,302.813,1,301,1h-90c-1.745,0-3.401,0.95-4.287,2.428L193.169,26H121.11c-20.753,0-40.263,8.082-54.938,22.757   L14.965,99.965c-1.953,1.952-1.953,5.118,0,7.07l62.5,62.5c1.951,1.953,5.119,1.953,7.07,0L101,153.07V481.6   c0,16.212,13.188,29.4,29.4,29.4H381.6c16.212,0,29.4-13.188,29.4-29.4V153.07l16.465,16.465c1.951,1.953,5.119,1.953,7.07,0   l62.5-62.5C498.988,105.083,498.988,101.917,497.035,99.965z M310.735,31.944l-13.021,69.445l-35.083-31.185L300.7,15.218   L310.735,31.944z M256,156c-2.762,0-5-2.238-5-5v-5c0-2.762,2.238-5,5-5s5,2.238,5,5v5C261,153.762,258.762,156,256,156z M261,176   v5c0,2.762-2.238,5-5,5s-5-2.238-5-5v-5c0-2.762,2.238-5,5-5S261,173.238,261,176z M256,126c-2.762,0-5-2.238-5-5v-5   c0-2.762,2.238-5,5-5s5,2.238,5,5v5C261,123.762,258.762,126,256,126z M256,62.216L237.851,36h36.299L256,62.216z M291.457,11   l-10.385,15h-50.145l-10.385-15H291.457z M211.3,15.218l38.068,54.987l-35.083,31.185l-13.021-69.445L211.3,15.218z M401,481.6   c0,10.697-8.703,19.4-19.4,19.4H263.07L401,363.07V481.6z M411,138.929c-0.174-0.174-13.692-13.692-16.065-16.064   c-1.951-1.953-5.119-1.953-7.07,0c-1.953,1.952-1.953,5.118,0,7.07L401,143.07v161.593L204.663,501H130.4   c-10.697,0-19.4-8.703-19.4-19.4V143.07l13.135-13.135c1.953-1.952,1.953-5.118,0-7.07c-1.951-1.953-5.119-1.953-7.07,0   c-2.071,2.071-11.749,11.748-16.065,16.064L45.571,83.5l27.673-27.673C86.029,43.042,103.029,36,121.11,36h70.655   c1.487,8.332,5.537,27.653,14.321,75.922c0.716,3.818,5.335,5.394,8.236,2.815L231,99.913V231c0,2.762,2.238,5,5,5h40   c2.762,0,5-2.238,5-5V99.913l16.678,14.825c2.902,2.579,7.521,1.001,8.236-2.815L320.149,36h70.74   c18.081,0,35.081,7.042,47.867,19.827L466.429,83.5L411,138.929z"/></g><g id="Layer_1"/></svg>