<?xml version="1.0"?><svg xmlns="http://www.w3.org/2000/svg" xmlns:xlink="http://www.w3.org/1999/xlink" version="1.1" viewBox="0 0 512 512" style="enable-background:new 0 0 512 512;" xml:space="preserve"><g id="_x30_5_x2C__polo_shirt_x2C__shirts_x2C__clothing_x2C__men_x2C__fashion_x2C__masculine"><g><g><path style="fill:#3A98FF;" d="M378.184,34.043l-29.056-30C347.329,2.194,344.71,1,341.944,1H170.056     c-2.656,0-5.323,1.13-7.184,3.043l-29.056,30c-3.26,3.366-3.745,8.545-1.167,12.459l65.889,100     c3.638,5.522,11.546,6.049,15.889,1.069L256,99.884l41.573,47.687c4.35,4.989,12.257,4.443,15.889-1.069l65.889-100     C381.929,42.588,381.443,37.409,378.184,34.043z M256,71.496L197.088,21h117.823L256,71.496z M207.999,124.509l-54.235-82.313     l16.929-17.479l71.144,60.98L207.999,124.509z M304.001,124.509l-33.837-38.813l71.144-60.98l16.929,17.479L304.001,124.509z"/><path style="fill:#3A98FF;" d="M314.335,256.093c-11.424-11.426-33.381-12.944-58.335,7.348     c-24.954-20.293-46.909-18.774-58.335-7.348c-11.427,11.426-12.945,33.382,7.348,58.335     c-20.293,24.954-18.774,46.909-7.348,58.336c11.424,11.427,33.38,12.944,58.335-7.349c13.644,11.096,26.392,15.672,37.011,15.671     c26.947,0,43.539-30.306,13.977-66.658C327.28,289.475,325.762,267.519,314.335,256.093z M286.421,321.348     c17.231,17.977,18.428,32.618,13.772,37.273c-4.656,4.656-19.298,3.458-37.273-13.772c-3.867-3.709-9.974-3.708-13.84,0     c-17.977,17.232-32.616,18.429-37.273,13.772c-4.655-4.655-3.459-19.297,13.772-37.273c3.708-3.868,3.708-9.972,0-13.84     c-17.232-17.977-18.428-32.618-13.772-37.273c4.654-4.656,19.297-3.461,37.273,13.772c3.867,3.709,9.973,3.709,13.84,0     c17.977-17.232,32.617-18.426,37.273-13.772c4.655,4.655,3.46,19.297-13.772,37.273     C282.713,311.376,282.713,317.479,286.421,321.348z"/></g><g><path style="fill:#283954;" d="M434.686,40.68l-62.165-9.564c-5.463-0.834-10.563,2.904-11.404,8.363     c-0.84,5.458,2.904,10.564,8.363,11.404l62.165,9.564C466.037,65.739,491,94.835,491,129.633V251h-70v-70c0-5.523-4.478-10-10-10     s-10,4.477-10,10v240H111V181c0-5.523-4.478-10-10-10s-10,4.477-10,10v70H21V129.633c0-34.798,24.963-63.895,59.355-69.186     l62.165-9.564c5.459-0.84,9.203-5.946,8.363-11.404c-0.84-5.459-5.96-9.202-11.404-8.363L77.314,40.68     C33.463,47.426,1,85.188,1,129.633V261c0,5.522,4.478,10,10,10h80v230c0,5.522,4.478,10,10,10h310c5.522,0,10-4.478,10-10V271h80     c5.522,0,10-4.478,10-10V129.633C511,85.266,478.614,47.438,434.686,40.68z M111,491v-50h290v50H111z"/></g></g></g><g id="Layer_1"/></svg>